<?xml version="1.0" encoding="UTF-8"?>
<svg width="50px" height="21px" viewBox="0 0 50 21" version="1.1" xmlns="http://www.w3.org/2000/svg" xmlns:xlink="http://www.w3.org/1999/xlink">
    <!-- Generator: Sketch 47.1 (45422) - http://www.bohemiancoding.com/sketch -->
    <title>Group 83</title>
    <desc>Created with Sketch.</desc>
    <defs></defs>
    <g id="Craft" stroke="none" stroke-width="1" fill="none" fill-rule="evenodd">
        <g id="0-landing-page" transform="translate(-444.000000, -1279.000000)" fill="#1D1D1B">
            <g id="Group-11" transform="translate(10.000000, 1006.000000)">
                <g id="Group-83" transform="translate(434.000000, 273.000000)">
                    <path d="M1.08695652,2.18121537 C4.93043478,2.18121537 6.35652174,2.79849932 8.16304348,3.58155564 L9.09347826,3.97853684 C10.9673913,4.78994896 12.7369565,5.55555556 17.0282609,5.55555556 C21.3195652,5.55555556 23.0913043,4.78994896 24.9652174,3.97853684 L25.8956522,3.57937443 C27.7021739,2.79849932 29.1282609,2.18121537 32.9717391,2.18121537 C36.8130435,2.18121537 38.2413043,2.79849932 40.0456522,3.57937443 L40.976087,3.97853684 C42.85,4.78776774 44.6217391,5.55555556 48.9130435,5.55555556 C49.5130435,5.55555556 50,5.06696331 50,4.46494787 C50,3.86293243 49.5130435,3.37434018 48.9130435,3.37434018 C45.0695652,3.37434018 43.6434783,2.75705623 41.8369565,1.97399991 L40.9065217,1.57701871 C39.0326087,0.765606596 37.2630435,0 32.9717391,0 C28.6804348,0 26.9086957,0.765606596 25.0347826,1.57701871 L24.1043478,1.97618113 C22.2978261,2.75705623 20.8717391,3.37434018 17.0282609,3.37434018 C13.1869565,3.37434018 11.7586957,2.75705623 9.95434783,1.97618113 L9.02391304,1.57701871 C7.15,0.767787811 5.37826087,0 1.08695652,0 C0.486956522,0 0,0.488592244 0,1.09060769 C0,1.69262313 0.486956522,2.18121537 1.08695652,2.18121537" id="Fill-7"></path>
                    <path d="M48.9130435,10.7808909 C45.0695652,10.7808909 43.6434783,10.1633645 41.8369565,9.38000058 L40.9108696,8.98504553 C39.0369565,8.17331471 37.2652174,7.40740741 32.9717391,7.40740741 C28.676087,7.40740741 26.9043478,8.17331471 25.0304348,8.98504553 L24.1043478,9.38218265 C22.2978261,10.1633645 20.8717391,10.7808909 17.0282609,10.7808909 C13.1869565,10.7808909 11.7586957,10.1633645 9.95434783,9.38218265 L9.03043478,8.98504553 C7.15434783,8.17549679 5.3826087,7.40740741 1.08695652,7.40740741 C0.486956522,7.40740741 0,7.89619156 0,8.49844346 C0,9.10069535 0.486956522,9.5894795 1.08695652,9.5894795 C4.93478261,9.5894795 6.36086957,10.2070059 8.16956522,10.9903698 L9.09347826,11.3853248 C10.9673913,12.1970557 12.7369565,12.962963 17.0282609,12.962963 C21.3195652,12.962963 23.0913043,12.1970557 24.9652174,11.3853248 L25.8913043,10.9881877 C27.6978261,10.2070059 29.123913,9.5894795 32.9717391,9.5894795 C36.8173913,9.5894795 38.2456522,10.2070059 40.0521739,10.9881877 L40.976087,11.3853248 C42.85,12.1948736 44.6217391,12.962963 48.9130435,12.962963 C49.5130435,12.962963 50,12.4741788 50,11.8719269 C50,11.269675 49.5130435,10.7808909 48.9130435,10.7808909" id="Fill-9"></path>
                    <path d="M48.9130435,18.189155 C45.0695652,18.189155 43.6434783,17.571871 41.8369565,16.7888147 L40.9065217,16.3918335 C39.0326087,15.5804214 37.2630435,14.8148148 32.9717391,14.8148148 C28.6804348,14.8148148 26.9086957,15.5804214 25.0347826,16.3918335 L24.1043478,16.7909959 C22.2978261,17.571871 20.8717391,18.189155 17.0282609,18.189155 C13.1869565,18.189155 11.7586957,17.571871 9.95434783,16.7909959 L9.02391304,16.3918335 C7.15,15.5826026 5.37826087,14.8148148 1.08695652,14.8148148 C0.486956522,14.8148148 0,15.3034071 0,15.9054225 C0,16.5074379 0.486956522,16.9960302 1.08695652,16.9960302 C4.93043478,16.9960302 6.35652174,17.6133141 8.16304348,18.3963705 L9.09347826,18.7933517 C10.9673913,19.6047638 12.7369565,20.3703704 17.0282609,20.3703704 C21.3195652,20.3703704 23.0913043,19.6047638 24.9652174,18.7933517 L25.8956522,18.3941892 C27.7021739,17.6133141 29.1282609,16.9960302 32.9717391,16.9960302 C36.8130435,16.9960302 38.2413043,17.6133141 40.0456522,18.3941892 L40.976087,18.7933517 C42.85,19.6025826 44.6217391,20.3703704 48.9130435,20.3703704 C49.5130435,20.3703704 50,19.8817781 50,19.2797627 C50,18.6777472 49.5130435,18.189155 48.9130435,18.189155" id="Fill-11"></path>
                </g>
            </g>
        </g>
    </g>
</svg>