<?xml version="1.0" encoding="UTF-8"?>
<svg width="50px" height="24px" viewBox="0 0 50 24" version="1.1" xmlns="http://www.w3.org/2000/svg" xmlns:xlink="http://www.w3.org/1999/xlink">
    <!-- Generator: Sketch 47.1 (45422) - http://www.bohemiancoding.com/sketch -->
    <title>Group 81</title>
    <desc>Created with Sketch.</desc>
    <defs></defs>
    <g id="Craft" stroke="none" stroke-width="1" fill="none" fill-rule="evenodd">
        <g id="0-landing-page" transform="translate(-708.000000, -1277.000000)" fill="#1D1D1B">
            <g id="Group-11" transform="translate(10.000000, 1006.000000)">
                <g id="Group-81" transform="translate(698.000000, 271.000000)">
                    <path d="M6.16325287,7.27272727 C5.87708016,7.27272727 5.59312584,7.1644512 5.3779417,6.94789904 L0.322223737,1.88544004 C-0.108144532,1.45233574 -0.108144532,0.751855816 0.326660523,0.320961226 C0.759247185,-0.105513932 1.4646962,-0.109933363 1.89506447,0.325380658 L6.94856404,5.38783966 C7.38115071,5.82094396 7.38115071,6.52142389 6.94634565,6.95010876 C6.72894312,7.1644512 6.44720719,7.27272727 6.16325287,7.27272727" id="Fill-15"></path>
                    <path d="M15.254162,7.27272727 C14.9679892,7.27272727 14.6840349,7.1644512 14.4688508,6.94789904 L9.41313283,1.88544004 C8.98276456,1.45233574 8.98276456,0.751855816 9.41756961,0.320961226 C9.85237467,-0.105513932 10.5556053,-0.109933363 10.9859736,0.325380658 L16.0394731,5.38783966 C16.4720598,5.82094396 16.4720598,6.52142389 16.0372547,6.95010876 C15.8198522,7.1644512 15.5381163,7.27272727 15.254162,7.27272727" id="Fill-17"></path>
                    <path d="M23.4359801,7.27272727 C23.1498074,7.27272727 22.8658531,7.1644512 22.650669,6.94789904 L17.594951,1.88544004 C17.1645827,1.45233574 17.1645827,0.751855816 17.5993878,0.320961226 C18.0341929,-0.105513932 18.7374235,-0.109933363 19.1677917,0.325380658 L24.2212913,5.38783966 C24.653878,5.82094396 24.653878,6.52142389 24.2190729,6.95010876 C24.0016704,7.1644512 23.7199345,7.27272727 23.4359801,7.27272727" id="Fill-19"></path>
                    <path d="M32.5272276,7.27272727 C32.2433598,7.27272727 31.9572744,7.1644512 31.7421559,6.94789904 L26.6857618,1.88544004 C26.2555248,1.45233574 26.2555248,0.751855816 26.6901973,0.320961226 C27.122652,-0.105513932 27.8256682,-0.109933363 28.258123,0.325380658 L33.3122993,5.38783966 C33.744754,5.82094396 33.744754,6.52142389 33.3100815,6.95010876 C33.0927453,7.1644512 32.8110953,7.27272727 32.5272276,7.27272727" id="Fill-21"></path>
                    <path d="M14.3450711,15.4545455 C14.0588983,15.4545455 13.774944,15.3462694 13.5597599,15.1297172 L8.50404192,10.0672582 C8.07367365,9.63415392 8.07367365,8.933674 8.5084787,8.50277941 C8.94328376,8.07630425 9.64651439,8.07188482 10.0768827,8.50719884 L15.1303822,13.5696578 C15.5629689,14.0027621 15.5629689,14.7032421 15.1281638,15.1319269 C14.9107613,15.3462694 14.6290254,15.4545455 14.3450711,15.4545455" id="Fill-23"></path>
                    <path d="M23.4359801,15.4545455 C23.1498074,15.4545455 22.8658531,15.3462694 22.650669,15.1297172 L17.594951,10.0672582 C17.1645827,9.63415392 17.1645827,8.933674 17.5993878,8.50277941 C18.0341929,8.07630425 18.7374235,8.07188482 19.1677917,8.50719884 L24.2212913,13.5696578 C24.653878,14.0027621 24.653878,14.7032421 24.2190729,15.1319269 C24.0016704,15.3462694 23.7199345,15.4545455 23.4359801,15.4545455" id="Fill-25"></path>
                    <path d="M31.6177983,15.4545455 C31.3316256,15.4545455 31.0476713,15.3462694 30.8324872,15.1297172 L25.7767692,10.0672582 C25.3464009,9.63415392 25.3464009,8.933674 25.781206,8.50277941 C26.216011,8.07630425 26.9192417,8.07188482 27.3496099,8.50719884 L32.4031095,13.5696578 C32.8356962,14.0027621 32.8356962,14.7032421 32.4008911,15.1319269 C32.1834886,15.3462694 31.9017526,15.4545455 31.6177983,15.4545455" id="Fill-27"></path>
                    <path d="M40.7087074,15.4545455 C40.4225347,15.4545455 40.1385804,15.3462694 39.9233962,15.1297172 L34.8676783,10.0672582 C34.43731,9.63415392 34.43731,8.933674 34.8721151,8.50277941 C35.3069201,8.07630425 36.0101507,8.07188482 36.440519,8.50719884 L41.4940186,13.5696578 C41.9266053,14.0027621 41.9266053,14.7032421 41.4918002,15.1319269 C41.2743977,15.3462694 40.9926617,15.4545455 40.7087074,15.4545455" id="Fill-29"></path>
                    <path d="M22.5272276,23.6363636 C22.2433598,23.6363636 21.9572744,23.5280876 21.7421559,23.3115354 L16.6857618,18.2490764 C16.2555248,17.8159721 16.2555248,17.1154922 16.6901973,16.6845976 C17.122652,16.2581224 17.8256682,16.253703 18.258123,16.689017 L23.3122993,21.751476 C23.744754,22.1845803 23.744754,22.8850602 23.3100815,23.3137451 C23.0927453,23.5280876 22.8110953,23.6363636 22.5272276,23.6363636" id="Fill-31"></path>
                    <path d="M31.6177983,23.6363636 C31.3316256,23.6363636 31.0476713,23.5280876 30.8324872,23.3115354 L25.7767692,18.2490764 C25.3464009,17.8159721 25.3464009,17.1154922 25.781206,16.6845976 C26.216011,16.2581224 26.9192417,16.253703 27.3496099,16.689017 L32.4031095,21.751476 C32.8356962,22.1845803 32.8356962,22.8850602 32.4008911,23.3137451 C32.1834886,23.5280876 31.9017526,23.6363636 31.6177983,23.6363636" id="Fill-33"></path>
                    <path d="M39.7996165,23.6363636 C39.5134438,23.6363636 39.2294895,23.5280876 39.0143053,23.3115354 L33.9585874,18.2490764 C33.5282191,17.8159721 33.5282191,17.1154922 33.9630242,16.6845976 C34.3956108,16.2581224 35.0988414,16.253703 35.5314281,16.689017 L40.5849277,21.751476 C41.0175143,22.1845803 41.0175143,22.8850602 40.5827093,23.3137451 C40.3653068,23.5280876 40.0835708,23.6363636 39.7996165,23.6363636" id="Fill-35"></path>
                    <path d="M48.8908639,23.6363636 C48.6069962,23.6363636 48.3209107,23.5280876 48.1057922,23.3115354 L43.0493982,18.2490764 C42.6191612,17.8159721 42.6191612,17.1154922 43.0538336,16.6845976 C43.4862884,16.2581224 44.1893046,16.253703 44.6217593,16.689017 L49.6759356,21.751476 C50.1083904,22.1845803 50.1083904,22.8850602 49.6737179,23.3137451 C49.4563817,23.5280876 49.1747317,23.6363636 48.8908639,23.6363636" id="Fill-37"></path>
                </g>
            </g>
        </g>
    </g>
</svg>