<?xml version="1.0" encoding="UTF-8"?>
<svg width="44px" height="27px" viewBox="0 0 44 27" version="1.1" xmlns="http://www.w3.org/2000/svg" xmlns:xlink="http://www.w3.org/1999/xlink">
    <!-- Generator: Sketch 47.1 (45422) - http://www.bohemiancoding.com/sketch -->
    <title>Group 82</title>
    <desc>Created with Sketch.</desc>
    <defs></defs>
    <g id="Craft" stroke="none" stroke-width="1" fill="none" fill-rule="evenodd">
        <g id="0-landing-page" transform="translate(-579.000000, -1276.000000)" fill="#1D1D1B">
            <g id="Group-11" transform="translate(10.000000, 1006.000000)">
                <g id="Group-82" transform="translate(569.000000, 270.000000)">
                    <path d="M21.7315005,24.5364402 C10.5181359,24.5364402 3.80054825,15.5765857 2.27761688,13.30189 C3.43337576,11.5725406 7.59118702,5.98636887 14.4610679,3.40685974 C13.0528779,5.05948738 12.1724984,7.17037186 12.1724984,9.50105375 C12.1724984,14.7388673 16.4617407,19.0021075 21.7315005,19.0021075 C27.0033465,19.0021075 31.2925888,14.7388673 31.2925888,9.50105375 C31.2925888,7.17451898 30.4122093,5.06570806 29.010278,3.41308042 C35.8592967,5.99673668 40.0254528,11.5766877 41.1853841,13.3039635 C39.6603665,15.5786593 32.9427788,24.5364402 21.7315005,24.5364402 M29.2063815,9.50105375 C29.2063815,13.5984091 25.8538462,16.9285471 21.7315005,16.9285471 C17.611241,16.9285471 14.2587057,13.5984091 14.2587057,9.50105375 C14.2587057,5.4036984 17.611241,2.0735604 21.7315005,2.0735604 C25.8538462,2.0735604 29.2063815,5.4036984 29.2063815,9.50105375 M43.3237467,12.7855734 C43.0212466,12.2630362 35.7320381,0 21.7315005,0 C7.73096292,0 0.443840615,12.2630362 0.139254341,12.7855734 C-0.0464181137,13.1049017 -0.0464181137,13.5030253 0.139254341,13.8223536 C0.443840615,14.3448908 7.73096292,26.6100006 21.7315005,26.6100006 C35.7320381,26.6100006 43.0212466,14.3448908 43.3237467,13.8223536 C43.5094191,13.5030253 43.5094191,13.1049017 43.3237467,12.7855734" id="Fill-13"></path>
                </g>
            </g>
        </g>
    </g>
</svg>