<?xml version="1.0" encoding="UTF-8"?>
<svg width="22px" height="28px" viewBox="0 0 22 28" version="1.1" xmlns="http://www.w3.org/2000/svg" xmlns:xlink="http://www.w3.org/1999/xlink">
    <!-- Generator: Sketch 47.1 (45422) - http://www.bohemiancoding.com/sketch -->
    <title>Group 74</title>
    <desc>Created with Sketch.</desc>
    <defs></defs>
    <g id="Craft" stroke="none" stroke-width="1" fill="none" fill-rule="evenodd">
        <g id="0-landing-page" transform="translate(-969.000000, -1275.000000)" fill="#1D1D1B">
            <g id="Group-11" transform="translate(10.000000, 1006.000000)">
                <g id="Group-74" transform="translate(959.000000, 269.000000)">
                    <path d="M10.9712123,2.43945604 C7.92509214,5.76702732 1.9922303,13.0371337 1.9922303,16.890111 C1.9922303,21.8356939 6.02051997,25.8598262 10.9712123,25.8598262 C15.9219046,25.8598262 19.9501942,21.8356939 19.9501942,16.890111 C19.9501942,13.0351435 14.0173324,5.76503715 10.9712123,2.43945604 M10.9712123,27.8500004 C4.92280108,27.8500004 0,22.9322799 0,16.890111 C0,11.05293 9.83364877,0.729896392 10.2520171,0.29404824 C10.6285487,-0.0980160799 11.3138759,-0.0980160799 11.6904074,0.29404824 C12.1087758,0.729896392 21.9424245,11.05293 21.9424245,16.890111 C21.9424245,22.9322799 17.0196235,27.8500004 10.9712123,27.8500004" id="Fill-74"></path>
                </g>
            </g>
        </g>
    </g>
</svg>